<?xml version="1.0" encoding="UTF-8" standalone="no"?>
<!-- Created with Inkscape (http://www.inkscape.org/) -->

<svg
   xmlns:dc="http://purl.org/dc/elements/1.1/"
   xmlns:cc="http://creativecommons.org/ns#"
   xmlns:rdf="http://www.w3.org/1999/02/22-rdf-syntax-ns#"
   xmlns:svg="http://www.w3.org/2000/svg"
   xmlns="http://www.w3.org/2000/svg"
   xmlns:sodipodi="http://sodipodi.sourceforge.net/DTD/sodipodi-0.dtd"
   xmlns:inkscape="http://www.inkscape.org/namespaces/inkscape"
   version="1.1"
   id="svg10"
   width="310"
   height="310"
   viewBox="0 0 310 310"
   sodipodi:docname="icon-eucharist.svg"
   inkscape:version="0.92.4 (5da689c313, 2019-01-14)">
  <metadata
     id="metadata16">
    <rdf:RDF>
      <cc:Work
         rdf:about="">
        <dc:format>image/svg+xml</dc:format>
        <dc:type
           rdf:resource="http://purl.org/dc/dcmitype/StillImage" />
        <dc:title></dc:title>
      </cc:Work>
    </rdf:RDF>
  </metadata>
  <defs
     id="defs14" />
  <sodipodi:namedview
     pagecolor="#ffffff"
     bordercolor="#666666"
     borderopacity="1"
     objecttolerance="10"
     gridtolerance="10"
     guidetolerance="10"
     inkscape:pageopacity="0"
     inkscape:pageshadow="2"
     inkscape:window-width="1920"
     inkscape:window-height="1001"
     id="namedview12"
     showgrid="false"
     inkscape:zoom="2.6064516"
     inkscape:cx="155"
     inkscape:cy="179.77309"
     inkscape:window-x="-9"
     inkscape:window-y="-9"
     inkscape:window-maximized="1"
     inkscape:current-layer="svg10" />
  <path
     d="m 95.992749,282.56981 c 16.654641,-8.757 32.686431,-22.75241 41.846461,-36.53106 6.5484,-9.8502 6.55106,-9.87057 1.4597,-11.19469 -2.38346,-0.61987 -7.99397,-2.94494 -12.46781,-5.16683 l -8.13425,-4.03979 -5.85201,4.76652 c -10.79761,8.79477 -17.977471,10.31419 -22.367311,4.73341 -2.704412,-3.4381 -2.571431,-7.82002 0.32523,-10.71668 2.14612,-2.14612 13.405211,-5.57168 18.312941,-5.57168 1.32313,0 0.81741,-0.96074 -2.05317,-3.90048 l -3.80872,-3.90048 -7.538891,3.5802 c -4.6303,2.19892 -9.577128,3.74923 -12.82186,4.01831 -4.653262,0.38589 -5.58958,0.13149 -7.855339,-2.13427 -3.275883,-3.27588 -3.358798,-7.63748 -0.214679,-11.29274 2.183438,-2.53839 3.033402,-2.77329 11.5,-3.17808 5.028268,-0.2404 9.142308,-0.6304 9.142308,-0.86666 0,-0.23626 -0.97771,-2.12837 -2.17269,-4.2047 l -2.17269,-3.77513 -9.317659,-0.0753 c -10.505005,-0.0849 -14.820387,-1.76715 -17.207019,-6.70777 -1.180624,-2.44404 -1.154781,-3.28762 0.186911,-6.10117 2.354299,-4.93702 6.946304,-6.11354 13.758571,-3.52508 2.91795,1.10874 5.508241,1.81301 5.756201,1.56505 0.24796,-0.24796 -1.369884,-2.82479 -3.59521,-5.72628 -4.786937,-6.24144 -7.958149,-12.13409 -8.802717,-16.35692 -0.914563,-4.57281 3.423936,-9.4185 8.432686,-9.4185 7.509074,0 9.559106,3.67763 10.760176,19.30311 0.37052,4.82043 1.05613,9.00078 1.52356,9.28967 0.46743,0.28889 0.84988,-0.19423 0.84988,-1.0736 0,-2.5806 3.84089,-9.36366 5.93752,-10.48574 4.932551,-2.63982 12.164701,0.25339 13.451741,5.38135 0.96095,3.82874 -0.91762,7.29114 -7.85437,14.47636 l -6.424811,6.65495 2.119171,3.347 2.11917,3.34699 2.71873,-5.37662 c 1.49531,-2.95715 3.95328,-6.61117 5.46216,-8.12005 5.77369,-5.7737 15.47069,-1.8951 15.47069,6.18796 0,2.64443 -6.12118,9.42365 -12.21346,13.52644 l -4.74174,3.19327 3.26105,3.16074 3.26106,3.16073 2.83812,-6.51473 c 3.16954,-7.27548 5.53138,-9.45783 10.23569,-9.45783 4.6015,0 6.23624,0.86138 7.95969,4.19417 2.30304,4.45359 0.93864,8.2233 -5.19705,14.35899 l -5.40523,5.40524 3.75093,1.89249 c 7.30528,3.68579 7.9167,3.64076 8.60015,-0.6333 0.35258,-2.20487 1.68311,-4.83878 3.1319,-6.19984 l 2.51889,-2.36638 v -22.59773 -22.59772 l -7.98555,-1.65124 c -15.07141,-3.11643 -31.79813,-13.43421 -41.401311,-25.53814 l -4.57513,-5.76654 29.981001,-0.26466 c 16.48954,-0.14557 43.53927,-0.14557 60.11051,0 l 30.12952,0.26466 -4.6822,5.74723 c -5.8864,7.22533 -15.1247,14.74196 -23.57834,19.18422 -6.87164,3.61094 -19.54071,7.56855 -24.2284,7.56855 h -2.7701 v 22.4 22.4 l 3.62264,3.62264 3.62265,3.62265 4.2895,-3.27265 4.2895,-3.27264 0.33786,-11.67243 c 0.31017,-10.71615 0.53528,-11.88234 2.74778,-14.23469 4.92758,-5.23904 13.46099,-3.94004 16.10873,2.45217 1.13876,2.7492 1.04662,3.73996 -0.74139,7.97206 l -2.04176,4.83271 2.2938,-1.04513 c 1.57103,-0.71581 2.66007,-2.49972 3.45621,-5.66145 3.01915,-11.99013 7.91605,-18.76617 14.31199,-19.80409 3.09641,-0.50248 4.0429,-0.15259 6.6561,2.46061 3.59032,3.59033 3.87855,6.87261 0.93239,10.61804 -1.16271,1.47814 -1.9079,2.89363 -1.65599,3.14554 0.2519,0.25191 2.44071,-0.2499 4.864,-1.11513 2.42329,-0.86523 7.41521,-1.83293 11.09314,-2.15044 6.46464,-0.5581 6.78908,-0.47539 9.75,2.48554 3.93696,3.93696 3.98048,7.45291 0.13977,11.29361 -3.54038,3.54038 -5.95789,3.65557 -18.99101,0.90484 -5.17775,-1.0928 -9.57528,-1.82572 -9.7723,-1.62871 -0.19701,0.19701 1.672,1.13354 4.15334,2.08118 8.44281,3.22433 10.82099,9.43168 5.60997,14.64269 -3.50049,3.50049 -7.05132,3.75663 -12.39252,0.89391 -3.71443,-1.99081 -3.76612,-1.99205 -2.73519,-0.0657 1.6831,3.1449 1.24574,5.05381 -1.87229,8.17183 -4.98668,4.98669 -11.79766,3.38697 -21.56251,-5.06445 l -4.66747,-4.03967 -2.78607,1.98386 c -1.53234,1.09112 -6.07843,5.14816 -10.10242,9.01565 l -7.31635,7.03179 5.67986,8.36166 c 10.28007,15.13393 24.67219,27.92565 41.67804,37.04348 l 8.5,4.55734 -62.5,-0.0125 -62.500004,-0.0125 8.027403,-4.22081 z M 199.41152,212.11004 c -1.89539,-2.05643 -3.51621,-3.88897 -3.60181,-4.0723 -0.0856,-0.18333 -1.81533,0.51814 -3.84385,1.55884 l -3.68821,1.89216 5.34385,1.20485 c 2.93912,0.66266 6.01885,1.63683 6.84385,2.16482 2.70597,1.73178 2.44274,1.04529 -1.05383,-2.74837 z M 84.692289,125.8408 c -4.277844,-6.84992 -9.493773,-24.77544 -10.54556,-36.24179 l -0.435709,-4.75 h 76.91161 76.91161 l -0.64923,5.25 c -1.58353,12.80519 -5.26861,25.75587 -9.84935,34.61403 l -1.62167,3.13597 h -64.73377 c -63.739035,0 -64.753053,-0.0309 -65.987931,-2.00821 z m 13.56292,-10.54621 c 0.28715,-6.98836 0.31992,-7.06327 3.500001,-8 2.50533,-0.73797 3.21014,-1.49448 3.21014,-3.44558 0,-2.08018 -0.53622,-2.55191 -3.19316,-2.80912 -2.890271,-0.2798 -3.222261,-0.65843 -3.500001,-3.991682 -0.22554,-2.706789 -0.81927,-3.779825 -2.24075,-4.049622 -2.29904,-0.436361 -4.56609,2.315005 -4.56609,5.541551 0,1.787343 -0.55676,2.308873 -2.464819,2.308873 -3.320627,0 -5.110503,3.28182 -2.961773,5.43055 0.863195,0.8632 2.437303,1.56945 3.498018,1.56945 1.673754,0 1.928574,0.73538 1.928574,5.56574 0,6.79657 1.34135,9.66866 4.31766,9.24494 1.97465,-0.28111 2.20992,-0.98201 2.4722,-7.3651 z m 28.001591,-0.0789 c 0.28728,-7.03097 0.33423,-7.14185 3.27361,-7.72972 1.64018,-0.32804 3.24687,-1.28629 3.57042,-2.12945 0.82014,-2.13721 -1.4189,-4.50751 -4.25792,-4.50751 -2.04165,0 -2.37756,-0.48497 -2.37756,-3.432612 0,-2.581165 -0.508,-3.593844 -2.04799,-4.082619 -2.77935,-0.882133 -4.95201,1.15261 -4.95201,4.637676 0,2.363205 -0.42498,2.877555 -2.37756,2.877555 -2.83902,0 -5.07806,2.3703 -4.25792,4.50754 0.32355,0.84316 1.9489,1.80514 3.61188,2.13774 2.94726,0.58945 3.0236,0.75098 3.0236,6.39793 0,7.68879 0.64069,9.13628 3.87775,8.76089 2.52433,-0.29274 2.63313,-0.57047 2.9137,-7.43739 z m 27.00855,6.43332 c 0.67422,-0.67422 1.2,-3.90556 1.2,-7.375 0,-6.00081 0.0811,-6.19121 2.87373,-6.74975 5.15853,-1.0317 4.79261,-6.67525 -0.43282,-6.67525 -1.86268,0 -2.37533,-0.61442 -2.62755,-3.149151 -0.62397,-6.270707 -6.81336,-6.617935 -6.81336,-0.382234 0,2.990975 -0.34432,3.533725 -2.25,3.546695 -5.69336,0.0388 -6.43705,4.83918 -0.99792,6.44149 3.24087,0.95472 3.24792,0.97117 3.24792,7.58333 0,3.6446 0.3,6.92654 0.66667,7.2932 1.06133,1.06133 3.8259,0.7741 5.13333,-0.53333 z m 27.59301,-0.38179 c 0.33385,-0.86998 0.60699,-4.18873 0.60699,-7.375 0,-5.64695 0.0763,-5.80848 3.0236,-6.39793 1.66298,-0.3326 3.28833,-1.29458 3.61188,-2.13774 0.81295,-2.1185 -1.41021,-4.50754 -4.19457,-4.50754 -1.86268,0 -2.37533,-0.61442 -2.62755,-3.149151 -0.62397,-6.270707 -6.81336,-6.617935 -6.81336,-0.382234 0,2.990975 -0.34432,3.533725 -2.25,3.546695 -5.69336,0.0388 -6.43705,4.83918 -0.99792,6.44149 3.24087,0.95472 3.24792,0.97117 3.24792,7.58333 0,3.6446 0.3,6.92654 0.66667,7.2932 1.27304,1.27305 5.12275,0.65783 5.72634,-0.91512 z m 27.39844,-6.0515 c 0.28728,-7.03097 0.33423,-7.14185 3.27361,-7.72972 1.64018,-0.32804 3.24687,-1.28629 3.57042,-2.12945 0.82014,-2.13724 -1.4189,-4.50754 -4.25792,-4.50754 -1.95258,0 -2.37756,-0.51435 -2.37756,-2.877555 0,-3.485066 -2.17266,-5.519809 -4.95201,-4.637676 -1.53999,0.488775 -2.04799,1.501454 -2.04799,4.082619 0,2.947642 -0.33591,3.432612 -2.37756,3.432612 -2.83902,0 -5.07806,2.3703 -4.25792,4.50754 0.32355,0.84316 1.9489,1.80514 3.61188,2.13774 3.00422,0.60084 3.0236,0.64771 3.0236,7.31305 0,3.68959 0.32066,7.029 0.71258,7.42091 0.39191,0.39192 1.85441,0.57942 3.25,0.41667 2.41993,-0.28221 2.55091,-0.62619 2.82887,-7.4292 z m -97.37324,6.0263 c 1.06096,-0.40713 1.58179,-1.86663 1.58179,-4.43261 0,-2.97725 -0.45417,-3.96977 -2.04799,-4.47563 -2.72331,-0.86435 -4.95201,1.13287 -4.95201,4.43767 0,4.02222 2.09086,5.74739 5.41821,4.47057 z m 28.5316,-0.83254 c 1.60698,-1.93629 0.94682,-6.61049 -1.11599,-7.90162 -2.29423,-1.43598 -4.83382,0.80402 -4.83382,4.26359 0,4.4626 3.49295,6.59837 5.94981,3.63803 z m 26.4684,0.83254 c 1.06096,-0.40713 1.58179,-1.86663 1.58179,-4.43261 0,-2.97725 -0.45417,-3.96977 -2.04799,-4.47563 -2.72331,-0.86435 -4.95201,1.13287 -4.95201,4.43767 0,4.02222 2.09086,5.74739 5.41821,4.47057 z m 27,0 c 1.06096,-0.40713 1.58179,-1.86663 1.58179,-4.43261 0,-3.04932 -0.44111,-3.96563 -2.1738,-4.51556 -3.69471,-1.17266 -6.0082,3.47805 -3.79102,7.6209 1.10316,2.06128 1.86727,2.29266 4.38303,1.32727 z M 86.965346,94.362705 c 0,-3.041999 -0.425933,-4.068332 -1.798039,-4.332576 -2.593477,-0.499458 -4.701961,1.641626 -4.701961,4.774659 0,3.436695 0.79721,4.209269 3.962576,3.840129 2.242721,-0.261539 2.537424,-0.758887 2.537424,-4.282212 z m 25.000004,-0.01369 c 0,-3.55138 -0.26816,-4 -2.39101,-4 -3.05538,0 -4.59196,2.439567 -3.72137,5.90828 0.56201,2.239227 1.16027,2.662697 3.39726,2.404777 2.4488,-0.28235 2.71512,-0.705411 2.71512,-4.313057 z m 28.33001,2.170905 c 0.1909,-1.006002 0.0666,-2.946878 -0.27633,-4.313057 -0.50127,-1.997211 -1.15548,-2.422616 -3.33856,-2.170905 -2.14546,0.247374 -2.78322,0.907761 -3.03969,3.14753 -0.17852,1.55896 -0.0686,3.501597 0.24431,4.316971 0.81941,2.135343 5.96843,1.347733 6.41027,-0.980539 z m 26.66999,-2.170905 c 0,-3.55138 -0.26816,-4 -2.39101,-4 -3.05538,0 -4.59196,2.439567 -3.72137,5.90828 0.56201,2.239227 1.16027,2.662697 3.39726,2.404777 2.4488,-0.28235 2.71512,-0.705411 2.71512,-4.313057 z m 27,0 c 0,-3.55138 -0.26816,-4 -2.39101,-4 -3.05538,0 -4.59196,2.439567 -3.72137,5.90828 0.56201,2.239227 1.16027,2.662697 3.39726,2.404777 2.4488,-0.28235 2.71512,-0.705411 2.71512,-4.313057 z m 26.91579,1.979481 c 0.87677,-3.49333 -1.01312,-6.67744 -3.73345,-6.290165 -1.55839,0.221857 -2.27514,1.121082 -2.50691,3.145157 -0.46709,4.079064 0.42471,5.665524 3.18478,5.665524 1.75578,0 2.59717,-0.694054 3.05558,-2.520516 z M 95.465349,72.030511 c 0,-22.212855 19.768441,-45.349055 42.799221,-50.090523 32.70513,-6.733175 64.45524,16.34842 66.9334,48.659022 l 0.55606,7.25 -14.39434,-0.0052 -14.39434,-0.0052 -1.54906,-6.494813 -1.54906,-6.494814 3.04906,-0.152314 c 1.67698,-0.08377 3.6872,-0.198182 4.46714,-0.254242 0.77994,-0.05606 1.60494,-0.662518 1.83333,-1.347685 0.29732,-0.891944 -1.12038,-1.245759 -4.99163,-1.245759 h -5.40689 l -4.64494,-7 -4.64495,-7 h 6.9685 c 5.52756,0 6.9685,-0.31017 6.9685,-1.5 0,-1.212986 -1.58992,-1.5 -8.30927,-1.5 h -8.30928 l -4.81432,-5.576406 c -3.4488,-3.99473 -5.1208,-5.269922 -5.89487,-4.495858 -0.77406,0.774065 0.16513,2.349795 3.31123,5.555441 2.41548,2.461191 4.19484,4.626154 3.95414,4.811029 -0.2407,0.184875 -3.91465,0.896899 -8.16435,1.582274 l -7.72672,1.246138 -3.17195,-3.612644 c -2.20519,-2.511573 -3.49036,-3.294225 -4.21668,-2.567902 -0.72633,0.726324 -0.16987,1.95792 1.82576,4.040904 1.57878,1.647889 2.67831,3.168627 2.44341,3.379417 -0.23491,0.21079 -2.0021,1.185202 -3.9271,2.165362 -1.925,0.980159 -4.772,2.722522 -6.32667,3.871918 l -2.82667,2.08981 -3.95945,-4.244741 c -3.69151,-3.957497 -5.89088,-5.26368 -5.88451,-3.494742 10e-4,0.4125 1.74315,2.768341 3.87036,5.235203 l 3.86765,4.485203 -4.87054,5.464617 c -3.03161,3.401395 -4.51646,5.818687 -3.93274,6.402403 0.58371,0.583716 2.79074,-1.077387 5.8455,-4.399573 l 4.90772,-5.33736 3.62988,4.949754 c 1.99644,2.722364 3.64104,5.427627 3.65468,6.011695 0.0136,0.584067 -1.30699,2.046567 -2.93472,3.25 -2.74561,2.02992 -4.08266,2.188058 -18.5,2.188058 H 95.465349 Z m 36.500001,4.818499 c 0.33992,-0.55 1.26648,-1 2.05902,-1 0.79254,0 1.44098,0.45 1.44098,1 0,0.55 -0.92656,1 -2.05902,1 -1.13246,0 -1.7809,-0.45 -1.44098,-1 z m 5.70545,-1.448435 c -1.05463,-2.314648 -0.83117,-2.585326 4.08948,-4.953676 9.40996,-4.529088 10.08763,-4.460654 12.55183,1.267544 1.18428,2.752931 2.15324,5.259408 2.15324,5.569948 0,0.310541 -3.97777,0.564619 -8.83948,0.564619 -8.40873,0 -8.89385,-0.119317 -9.95507,-2.448435 z m 21.12837,0.698435 c -0.33188,-0.9625 -1.39484,-3.611396 -2.36215,-5.886435 l -1.75874,-4.136434 3.64354,-0.60256 c 2.00394,-0.331408 5.5402,-0.607512 7.85835,-0.613565 4.86771,-0.01271 5.95681,1.314164 6.93471,8.448671 l 0.62232,4.540323 h -7.16731 c -5.92947,0 -7.27152,-0.302236 -7.77072,-1.75 z M 131.16403,65.295542 c -2.09073,-3.00929 -3.52088,-5.925206 -3.17811,-6.479815 0.82238,-1.330634 10.64455,-6.945312 12.17098,-6.957333 0.65536,-0.0052 3.27155,2.693728 5.81377,5.997531 4.06783,5.286448 4.40467,6.085709 2.80845,6.66387 -1.47962,0.535924 -11.44186,5.016332 -13.31377,5.987719 -0.275,0.142705 -2.21059,-2.202682 -4.30132,-5.211972 z m 18.26293,-7.113605 c -5.75451,-7.621798 -5.8027,-8.030227 -1.03041,-8.733406 13.07226,-1.926145 11.19653,-2.506584 16.4497,5.09031 2.95753,4.277053 4.22745,6.893674 3.41412,7.034669 -0.71226,0.123475 -4.33614,0.609567 -8.05307,1.080206 l -6.75805,0.855706 z"
     id="path22"
     inkscape:connector-curvature="0" />
</svg>
