<?xml version="1.0" encoding="UTF-8" standalone="no"?>
<!-- Created with Inkscape (http://www.inkscape.org/) -->

<svg
   xmlns:dc="http://purl.org/dc/elements/1.1/"
   xmlns:cc="http://creativecommons.org/ns#"
   xmlns:rdf="http://www.w3.org/1999/02/22-rdf-syntax-ns#"
   xmlns:svg="http://www.w3.org/2000/svg"
   xmlns="http://www.w3.org/2000/svg"
   xmlns:sodipodi="http://sodipodi.sourceforge.net/DTD/sodipodi-0.dtd"
   xmlns:inkscape="http://www.inkscape.org/namespaces/inkscape"
   version="1.1"
   id="svg48"
   width="310"
   height="310"
   viewBox="0 0 310 310"
   sodipodi:docname="icon-glorification.svg"
   inkscape:version="0.92.4 (5da689c313, 2019-01-14)">
  <metadata
     id="metadata54">
    <rdf:RDF>
      <cc:Work
         rdf:about="">
        <dc:format>image/svg+xml</dc:format>
        <dc:type
           rdf:resource="http://purl.org/dc/dcmitype/StillImage" />
        <dc:title></dc:title>
      </cc:Work>
    </rdf:RDF>
  </metadata>
  <defs
     id="defs52" />
  <sodipodi:namedview
     pagecolor="#ffffff"
     bordercolor="#666666"
     borderopacity="1"
     objecttolerance="10"
     gridtolerance="10"
     guidetolerance="10"
     inkscape:pageopacity="0"
     inkscape:pageshadow="2"
     inkscape:window-width="806"
     inkscape:window-height="480"
     id="namedview50"
     showgrid="false"
     inkscape:zoom="0.76129032"
     inkscape:cx="155"
     inkscape:cy="155"
     inkscape:window-x="0"
     inkscape:window-y="0"
     inkscape:window-maximized="0"
     inkscape:current-layer="svg48" />
  <path
     style="fill:#000000"
     d="m 129.59305,274.21055 c -8.3475,-3.43176 -12.6168,-7.18299 -16.24269,-14.27166 -5.5703,-10.89003 -5.31978,-22.42655 0.68381,-31.49032 5.77713,-8.72188 19.5714,-13.094 29.43154,-9.32838 5.88421,2.24721 12.85563,10.00691 15.12285,16.83287 l 1.72952,5.2071 1.88572,-5.48686 c 2.30191,-6.69781 5.0029,-23.9093 4.59485,-29.27966 l -0.29865,-3.93049 -13,-0.18784 c -10.81087,-0.15621 -13.95186,-0.56435 -18.65254,-2.42374 -7.94508,-3.14273 -13.62641,-7.82332 -18.83037,-15.51352 -3.54782,-5.24281 -4.6197,-6.2549 -5.13865,-4.85205 -0.98608,2.66565 -2.63939,19.58441 -4.9056,50.20044 -2.11523,28.57633 -3.36348,38.99288 -5.05035,42.14483 -0.926313,1.73084 -2.665963,1.85517 -25.957673,1.85517 H 50 v -2.36304 c 0,-1.29967 1.426954,-9.73717 3.171009,-18.75 4.144309,-21.41673 4.475997,-38.18725 0.99586,-50.35185 -3.65035,-12.75956 -7.458755,-18.90799 -18.501017,-29.86873 -11.041833,-10.96031 -10.120772,-8.4945 -8.049754,-21.55029 0.542808,-3.42189 0.116397,-4.61975 -3.584578,-10.06968 -4.296506,-6.32688 -16.0315201,-32.80889 -16.0315201,-36.17779 0,-1.02774 0.697347,-1.86862 1.54966,-1.86862 2.2333331,0 7.4503401,2.86612 7.4503401,4.09307 0,0.60703 0.886634,0.7603 2.124846,0.36731 2.783016,-0.8833 3.84056,0.89046 3.859841,6.4739 0.01811,5.24453 2.664331,11.1274 7.598002,16.89129 3.911033,4.56916 5.09689,4.90861 9.39089,2.68809 l 2.874259,-1.48633 9.326081,9.29978 c 10.233121,10.20428 19.245518,15.67289 25.829258,15.67289 12.7247,0 31.681853,-12.44545 59.496823,-39.05993 24.40254,-23.349324 25.34243,-25.103007 23.38279,-43.628729 -1.36169,-12.87284 -0.51507,-19.25278 3.66579,-27.624803 6.39757,-12.810909 17.10141,-18.365921 27.23354,-14.13349 5.40946,2.259663 8.93947,6.092671 10.81705,11.745536 4.39275,13.225331 -2.37694,30.865307 -18.34917,47.812934 L 178,98.429641 v 10.545529 10.54554 l 5.15902,1.10641 c 2.83746,0.60853 7.09771,1.96399 9.46723,3.01214 5.62054,2.48624 13.69466,10.09757 16.30446,15.36995 l 2.06771,4.17723 7.9e-4,-4.78212 c 9.9e-4,-5.99963 1.82642,-10.43993 5.8551,-14.24236 7.87714,-7.43475 19.78232,-6.93455 27.33207,1.14838 9.53751,10.21106 4.2987,27.74494 -9.39108,31.43122 -7.18877,1.93574 -14.24291,-0.38408 -19.55084,-6.42947 l -3.05242,-3.47652 0.0264,6.67543 c 0.0228,5.7754 -1.02169,11.89326 -2.83919,16.62958 -0.42316,1.10275 0.58348,1.09984 5.91167,-0.017 20.80514,-4.36112 34.76985,-14.3845 47.97824,-34.4371 6.85866,-10.41262 8.71913,-12.4432 13.7544,-15.012 5.73679,-2.92669 7.52966,-6.20354 7.21891,-13.19405 -0.22301,-5.01666 -0.0151,-5.79395 1.55,-5.79395 0.99416,0 2.27573,0.46817 2.84795,1.04039 0.72051,0.72051 1.86245,-0.20185 3.71419,-2.999999 3.979,-6.012685 8.64542,-5.074844 8.64542,1.737519 0,2.41628 -1.99955,6.67816 -7.02375,14.97054 -3.86306,6.37594 -7.29499,12.67331 -7.6265,13.99416 -0.44031,1.75435 0.24827,3.52747 2.55507,6.57947 5.24433,6.93845 5.70074,8.34658 3.50384,10.8101 -1.04976,1.17716 -6.0223,5.22857 -11.05008,9.00312 -12.48055,9.36964 -19.5046,17.21721 -24.31832,27.16946 -9.33946,19.30914 -10.32765,37.96709 -3.65638,69.03582 1.98887,9.26232 3.61612,17.69982 3.61612,18.75 0,1.84233 -1.21222,1.90942 -34.5,1.90942 -29.57139,0 -34.5,-0.20846 -34.5,-1.45921 0,-2.21778 6.18439,-18.64893 11.88587,-31.57924 6.19234,-14.04356 8.9831,-24.4972 9.7976,-36.69988 l 0.61664,-9.23833 -3.61793,-1.51167 c -5.44407,-2.27468 -12.08591,-1.89141 -18.70578,1.07941 l -5.7737,2.59108 -0.64595,10.15892 c -1.62825,25.6073 -4.26635,39.45174 -9.59316,50.34374 -7.92139,16.19724 -26.23155,23.47423 -42.37054,16.83929 z M 159.25,190.04459 c 2.0625,-0.34091 3.75,-0.94982 3.75,-1.35313 0,-0.40332 -1.98778,-1.49244 -4.41728,-2.42028 -6.668,-2.54653 -13.03863,-8.73411 -16.74597,-16.26479 -2.86056,-5.81061 -3.23236,-7.51882 -3.19898,-14.69736 0.0247,-5.30306 0.61931,-9.47759 1.71312,-12.02613 3.12504,-7.28124 0.71143,-4.93528 -3.03174,2.94677 -3.19935,6.73693 -3.77962,9.05527 -4.1369,16.52794 -0.25476,5.32872 0.0644,10.1887 0.82486,12.56035 3.47528,10.8383 13.47451,16.67183 25.24289,14.72663 z m 6.10468,-35.10815 c -0.34799,-9.2125 -0.73075,-16.87309 -0.85057,-17.02354 -0.84769,-1.06435 -3.99074,1.74777 -6.2365,5.57987 -2.17942,3.71889 -2.67518,5.79623 -2.65692,11.13284 0.0142,4.14562 0.63482,7.72474 1.68591,9.72253 1.63633,3.11018 6.14889,7.3383 7.83196,7.3383 0.47236,0 0.57412,-7.5375 0.22612,-16.75 z m 23.74744,14.48007 c 7.00704,-4.68101 9.11597,-15.91565 4.64788,-24.76011 -2.31944,-4.59127 -7.63925,-8.96996 -10.89788,-8.96996 -1.65358,0 -1.85157,0.88438 -1.84695,8.25 0.003,4.5375 0.29572,12.6375 0.65083,18 0.72752,10.98641 1.31461,11.57618 7.44612,7.48007 z m -29.66013,-47.27028 c 2.74372,-1.1464 3.55801,-2.06376 3.55801,-4.00839 0,-3.33269 -1.85749,-2.32069 -8.5,4.63096 -3.86654,4.04649 -4.2764,4.73753 -1.80801,3.04838 1.7556,-1.20138 4.7931,-2.8533 6.75,-3.67095 z m 21.00622,-50.20979 c 7.56167,-7.933673 10.77242,-18.930387 6.62345,-22.685145 -5.14947,-4.660206 -9.964,2.94382 -10.80665,17.067935 -0.30737,5.151966 -0.29608,9.36721 0.0251,9.36721 0.32117,0 2.19232,-1.6875 4.15811,-3.75 z M 76.764047,152.73448 C 61.203718,147.80035 57.4091,127.9222 70.251627,118.61912 c 13.5274,-9.79919 32.356043,1.11176 30.489863,17.66848 -1.250593,11.09524 -13.770933,19.68333 -23.977443,16.44688 z"
     id="path58"
     inkscape:connector-curvature="0" />
</svg>
