<?xml version="1.0" encoding="UTF-8" standalone="no"?>
<!-- Created with Inkscape (http://www.inkscape.org/) -->

<svg
   xmlns:dc="http://purl.org/dc/elements/1.1/"
   xmlns:cc="http://creativecommons.org/ns#"
   xmlns:rdf="http://www.w3.org/1999/02/22-rdf-syntax-ns#"
   xmlns:svg="http://www.w3.org/2000/svg"
   xmlns="http://www.w3.org/2000/svg"
   xmlns:sodipodi="http://sodipodi.sourceforge.net/DTD/sodipodi-0.dtd"
   xmlns:inkscape="http://www.inkscape.org/namespaces/inkscape"
   version="1.1"
   id="svg60"
   width="271"
   height="271"
   viewBox="0 0 271 271"
   sodipodi:docname="icon-maria.svg"
   inkscape:version="0.92.4 (5da689c313, 2019-01-14)">
  <metadata
     id="metadata66">
    <rdf:RDF>
      <cc:Work
         rdf:about="">
        <dc:format>image/svg+xml</dc:format>
        <dc:type
           rdf:resource="http://purl.org/dc/dcmitype/StillImage" />
        <dc:title></dc:title>
      </cc:Work>
    </rdf:RDF>
  </metadata>
  <defs
     id="defs64" />
  <sodipodi:namedview
     pagecolor="#ffffff"
     bordercolor="#666666"
     borderopacity="1"
     objecttolerance="10"
     gridtolerance="10"
     guidetolerance="10"
     inkscape:pageopacity="0"
     inkscape:pageshadow="2"
     inkscape:window-width="806"
     inkscape:window-height="480"
     id="namedview62"
     showgrid="false"
     inkscape:zoom="0.87084871"
     inkscape:cx="135.5"
     inkscape:cy="135.5"
     inkscape:window-x="0"
     inkscape:window-y="0"
     inkscape:window-maximized="0"
     inkscape:current-layer="svg60" />
  <path
     d="m 212.14831,238.20339 v -15.5 h -6 -6 v -3.5 -3.5 h 6 6 l 0.17324,-6.25 c 0.50319,-18.15419 0.42033,-40.55398 -0.15813,-42.74919 -0.57884,-2.19663 -0.95255,-1.71962 -3.08684,3.94002 -1.57861,4.1861 -4.05679,8.1636 -7.08245,11.36737 -3.51962,3.72682 -4.81061,5.97134 -5.2959,9.20747 -0.52689,3.51357 -1.31899,4.7275 -4.42664,6.78405 -20.76872,13.74409 -48.86854,19.36492 -76.20714,15.24378 C 98.114348,210.541 76.92115,202.28347 63.169878,192.6375 L 57.1567,188.4195 53.732239,177.81144 C 44.695181,149.81708 42.599517,121.13716 47.696004,95.20339 56.44101,50.703917 78.633645,22.071326 109.7441,15.149908 c 10.06527,-2.23931 28.78605,-1.546666 38.78429,1.434968 9.45519,2.819685 18.70629,7.291005 26.30772,12.715276 12.67704,9.046146 18.84825,24.403238 9.80639,24.403238 -2.48366,0 -3.45761,2.205418 -3.48054,7.881313 -0.008,1.859722 -1.37739,7.353142 -3.04418,12.2076 l -3.03053,8.826287 2.6142,6.211058 c 3.02098,7.17753 2.49563,9.762922 -2.50979,12.351322 -2.14712,1.11032 -3.04335,2.30244 -3.04335,4.0481 0,1.36088 -0.82188,3.2962 -1.82639,4.30071 -1.00452,1.00452 -2.11798,2.58627 -2.47438,3.51501 -0.35639,0.92874 -1.69924,2.0883 -2.9841,2.57681 -1.96278,0.74624 -2.27085,1.44737 -1.92766,4.38702 0.30755,2.63441 -0.13625,4.04355 -1.79631,5.70361 -1.96806,1.96806 -2.91805,2.14491 -8.84797,1.64711 -3.65376,-0.30672 -8.0657,-0.84999 -9.80432,-1.20727 -4.85334,-0.99733 -6.87377,2.76439 -6.71956,12.51075 0.13389,8.46198 1.67532,15.09838 7.55813,32.54057 3.31006,9.81414 4.07237,13.49368 4.18493,20.20003 0.0771,4.59682 0.63641,8.69879 1.27273,9.3351 2.96002,2.95994 12.57022,-6.23474 17.61565,-16.854 2.51469,-5.29274 2.89918,-7.07063 2.3677,-10.94818 -0.78141,-5.70102 0.97767,-24.93289 2.90929,-31.80694 1.72044,-6.12255 4.76993,-9.36965 7.2808,-7.75259 1.3478,0.86802 1.66489,2.51542 1.56071,8.10839 l -0.13075,7.01905 4.3412,-6.47387 c 5.9391,-8.85676 14.26854,-18.99754 17.16079,-20.89261 1.76878,-1.15895 2.73813,-1.28205 3.71451,-0.47173 0.96095,0.79752 2.0159,0.77992 3.86931,-0.0645 4.23801,-1.93097 6.03288,-0.53331 5.28902,4.11854 -0.56808,3.5526 -0.41601,3.98336 1.40624,3.98336 2.72232,0 3.50014,2.4 2.17604,6.7143 -0.86928,2.83236 -0.79743,3.82674 0.36013,4.9843 1.51661,1.51661 1.29451,3.47943 -1.20814,10.67713 -1.57736,4.53647 -1.78931,11.62422 -0.3476,11.62422 0.55,0 1,1.35 1,3 0,1.65 -0.45,3 -1,3 -0.55,0 -1,1.35 -1,3 0,1.65 0.45,3 1,3 0.55,0 1,1.125 1,2.5 0,1.375 -0.45,2.5 -1,2.5 -0.55,0 -1,2.475 -1,5.5 0,3.025 0.45,5.5 1,5.5 1.32696,0 1.29323,4.73559 -0.0369,5.17896 -0.68443,0.22815 -0.80422,3.65574 -0.3524,10.08334 l 0.68449,9.7377 h 5.91576 5.91576 l -0.31336,3.25 c -0.3098,3.21312 -0.37861,3.2534 -6.06336,3.5499 l -5.75,0.29991 v 15.45009 15.4501 h -2.5 -2.5 v -15.5 z m -98.3738,-67.89991 c 2.73458,-8.19963 1.4303,-19.23412 -4.44435,-37.60009 -2.72686,-8.525 -5.21814,-16.4 -5.53618,-17.5 -0.31805,-1.1 -0.35575,1.03894 -0.0838,4.75319 0.31295,4.27401 2.00604,11.0656 4.61191,18.5 3.55184,10.1332 4.12255,12.91442 4.15468,20.24681 0.027,6.16936 -0.54232,10.14516 -2.07647,14.5 -3.46836,9.84527 -3.51315,10.1681 -0.83248,6 1.4149,-2.2 3.30791,-6.20496 4.20668,-8.89991 z m 5.1579,-91.414274 c 1.13989,-2.922802 3.96934,-7.872802 6.28766,-11 l 4.21514,-5.685816 -4.68988,4.5 c -8.4149,8.074209 -12.08145,19.651534 -10.02191,31.64468 0.8043,4.68357 0.85683,4.51928 1.48513,-4.64468 0.39916,-5.821928 1.45375,-11.557469 2.72386,-14.814184 z"
     id="path70"
     inkscape:connector-curvature="0" />
</svg>
