<?xml version="1.0" encoding="UTF-8" standalone="no"?>
<!-- Created with Inkscape (http://www.inkscape.org/) -->

<svg
   xmlns:dc="http://purl.org/dc/elements/1.1/"
   xmlns:cc="http://creativecommons.org/ns#"
   xmlns:rdf="http://www.w3.org/1999/02/22-rdf-syntax-ns#"
   xmlns:svg="http://www.w3.org/2000/svg"
   xmlns="http://www.w3.org/2000/svg"
   xmlns:sodipodi="http://sodipodi.sourceforge.net/DTD/sodipodi-0.dtd"
   xmlns:inkscape="http://www.inkscape.org/namespaces/inkscape"
   version="1.1"
   id="svg84"
   width="310"
   height="310"
   viewBox="0 0 310 310"
   sodipodi:docname="icon-worship.svg"
   inkscape:version="0.92.4 (5da689c313, 2019-01-14)">
  <metadata
     id="metadata90">
    <rdf:RDF>
      <cc:Work
         rdf:about="">
        <dc:format>image/svg+xml</dc:format>
        <dc:type
           rdf:resource="http://purl.org/dc/dcmitype/StillImage" />
        <dc:title></dc:title>
      </cc:Work>
    </rdf:RDF>
  </metadata>
  <defs
     id="defs88" />
  <sodipodi:namedview
     pagecolor="#ffffff"
     bordercolor="#666666"
     borderopacity="1"
     objecttolerance="10"
     gridtolerance="10"
     guidetolerance="10"
     inkscape:pageopacity="0"
     inkscape:pageshadow="2"
     inkscape:window-width="806"
     inkscape:window-height="480"
     id="namedview86"
     showgrid="false"
     inkscape:zoom="0.76129032"
     inkscape:cx="155"
     inkscape:cy="155"
     inkscape:window-x="0"
     inkscape:window-y="0"
     inkscape:window-maximized="0"
     inkscape:current-layer="svg84" />
  <path
     d="m 103,259.27649 c 0,-1.87547 0.92159,-9.41297 2.04797,-16.75 2.61974,-17.06438 3.74256,-50.47949 2.02721,-60.32975 -2.08407,-11.9676 -7.136177,-20.69587 -12.543407,-21.67064 -1.11917,-0.20175 -3.2761,-2.6147 -5,-5.59347 -1.79324,-3.09856 -4.87011,-6.49606 -7.53177,-8.31663 -2.475,-1.69289 -8.35442,-6.98209 -13.06537,-11.75377 -4.71096,-4.77169 -13.15908,-13.17579 -18.7736,-18.67579 -5.61453,-5.5 -12.78511,-13.56443 -15.93463,-17.92095 -5.25585,-7.270061 -13.0379,-16.430673 -23.23616,-27.352335 -4.2378101,-4.538418 -5.1813901,-6.941372 -2.2402401,-5.705108 3.1152901,1.309462 6.2501301,1.733626 6.2448701,0.84497 -0.003,-0.476617 -1.11377,-2.666577 -2.46879,-4.866577 -1.35501,-2.2 -2.47771,-4.3375 -2.49487,-4.75 -0.0732,-1.759602 2.97196,-0.53452 4.9714,2 l 2.16943,2.75 -2.08602,-3.618034 c -1.14731,-1.989919 -2.08602,-4.127419 -2.08602,-4.75 0,-2.455288 2.87114,-0.925078 5.3813,2.868034 3.38987,5.122444 4.24255,5.143169 1.63902,0.03984 -2.35147,-4.60926 -2.52183,-6.03984 -0.71928,-6.03984 0.71557,0 3.48854,3.61854 6.16215,8.0412 2.67362,4.42266 5.27146,8.294806 5.77299,8.604769 0.50153,0.309962 1.92006,-0.383578 3.1523,-1.5412 3.19061,-2.997423 3.9141,-2.629037 3.23115,1.645231 -2.09682,13.123054 -2.22853,12.039026 1.99277,16.400966 2.13818,2.209413 7.55331,6.892191 12.03364,10.406174 4.48032,3.513983 10.33032,8.80971 13,11.76827 3.05418,3.38468 9.47915,8.29404 17.32797,13.24042 11.73029,7.39249 13.34009,8.09281 27.000007,11.74587 7.98929,2.13658 15.23173,4.51126 16.09432,5.27708 1.33513,1.18535 2.35408,1.18859 6.85227,0.0218 2.90615,-0.75385 6.15798,-2.24469 7.22628,-3.31299 1.92314,-1.92315 1.91568,-2.01583 -0.75506,-9.36996 -1.48358,-4.08518 -3.58207,-8.41345 -4.66331,-9.61839 -1.74326,-1.94268 -1.91779,-3.30167 -1.54112,-12 0.46459,-10.728674 1.77239,-14.40109 7.17455,-20.146839 5.05254,-5.373885 10.02983,-7.446747 16.71906,-6.962892 8.31667,0.601573 12.87336,3.931661 17.08641,12.486961 2.99532,6.082507 3.33258,7.639342 3.33258,15.38377 0,6.17402 -0.42367,9.12775 -1.49464,10.42034 -0.82206,0.99216 -2.26612,5.00017 -3.20903,8.90669 l -1.71438,7.10276 2.36669,2.12261 C 176.59046,134.02375 188,134.30806 188,130.6966 c 0,-0.50573 1.6875,-1.18206 3.75,-1.50295 3.96481,-0.61687 23.01582,-5.97868 27.25,-7.66937 7.00752,-2.79808 20.20794,-12.10089 27.47219,-19.36064 4.4153,-4.412552 11.48485,-10.860389 15.71012,-14.328523 9.02779,-7.410085 15.75291,-16.316848 13.95546,-18.482638 -0.63522,-0.765402 -1.63438,-3.985082 -2.22034,-7.154846 -1.3824,-7.478099 0.0594,-9.359636 3.15357,-4.115396 1.95559,3.314477 2.34239,3.539433 3.80301,2.211764 C 281.7683,59.481103 284.3,55.866838 286.5,52.2623 c 3.6243,-5.938143 6.05045,-8.358711 7.21289,-7.196274 0.23465,0.234648 -0.51391,2.270241 -1.66345,4.523539 -2.67127,5.236108 -1.82919,5.292363 1.45056,0.0969 2.78975,-4.419249 6.13859,-5.608026 4.92983,-1.75 -0.38772,1.2375 -1.54305,3.323186 -2.56739,4.634859 -1.02434,1.311672 -1.86076,2.886672 -1.8587,3.5 0.002,0.613327 0.89544,-0.347359 1.9853,-2.134859 1.08986,-1.7875 2.66318,-3.25 3.49626,-3.25 1.96165,0 1.90514,0.840416 -0.30261,4.5 -0.99541,1.65 -2.1086,3.797913 -2.47376,4.773139 -0.55994,1.495435 -0.36293,1.612056 1.25788,0.744623 1.05699,-0.565684 2.19842,-1.476097 2.53651,-2.023139 C 301.38489,57.254655 303,57.454144 303,58.989437 c 0,1.63698 -5.11277,8.802296 -10.48697,14.697003 -2.25645,2.475 -8.13248,10.349232 -13.05783,17.498293 -7.00108,10.161917 -12.33747,16.351827 -24.4552,28.366617 -8.525,8.45258 -18.9875,18.28123 -23.25,21.84144 -4.2625,3.56022 -7.75,7.25401 -7.75,8.20842 0,1.82224 -1.36158,3.36658 -6.79385,7.70576 -6.4805,5.17647 -8.92683,13.14795 -11.63331,37.90758 -1.77588,16.24625 -1.11385,25.34579 2.94453,40.47189 5.57435,20.77631 6.48263,24.37152 6.48263,25.65996 0,1.1041 -9.85992,1.34004 -56,1.34004 h -56 z"
     id="path94"
     inkscape:connector-curvature="0" />
</svg>
