<?xml version="1.0" encoding="UTF-8" standalone="no"?>
<!-- Created with Inkscape (http://www.inkscape.org/) -->

<svg
   xmlns:dc="http://purl.org/dc/elements/1.1/"
   xmlns:cc="http://creativecommons.org/ns#"
   xmlns:rdf="http://www.w3.org/1999/02/22-rdf-syntax-ns#"
   xmlns:svg="http://www.w3.org/2000/svg"
   xmlns="http://www.w3.org/2000/svg"
   xmlns:sodipodi="http://sodipodi.sourceforge.net/DTD/sodipodi-0.dtd"
   xmlns:inkscape="http://www.inkscape.org/namespaces/inkscape"
   version="1.1"
   id="svg3926"
   width="254"
   height="253"
   viewBox="0 0 254 253"
   sodipodi:docname="icon-easter.svg"
   inkscape:version="0.92.4 (5da689c313, 2019-01-14)">
  <metadata
     id="metadata3932">
    <rdf:RDF>
      <cc:Work
         rdf:about="">
        <dc:format>image/svg+xml</dc:format>
        <dc:type
           rdf:resource="http://purl.org/dc/dcmitype/StillImage" />
        <dc:title></dc:title>
      </cc:Work>
    </rdf:RDF>
  </metadata>
  <defs
     id="defs3930" />
  <sodipodi:namedview
     pagecolor="#ffffff"
     bordercolor="#666666"
     borderopacity="1"
     objecttolerance="10"
     gridtolerance="10"
     guidetolerance="10"
     inkscape:pageopacity="0"
     inkscape:pageshadow="2"
     inkscape:window-width="806"
     inkscape:window-height="480"
     id="namedview3928"
     showgrid="false"
     inkscape:zoom="0.93280632"
     inkscape:cx="127"
     inkscape:cy="126.5"
     inkscape:window-x="0"
     inkscape:window-y="0"
     inkscape:window-maximized="0"
     inkscape:current-layer="svg3926" />
  <path
     style="fill:#000000"
     d="m 110.92797,179.60593 v -64.25 h 15 15 v 64.25 64.25 h -15 -15 z m -26.340632,-5.16763 -5.56666,-7.39597 -9.296355,2.38676 c -5.112996,1.31271 -9.539942,2.39577 -9.837657,2.4068 -0.37587,0.0139 9.180665,-73.458858 9.980195,-76.729958 0.03361,-0.1375 3.456496,-0.25 7.606418,-0.25 h 7.545309 l -0.55239,3.25 c -0.6783,3.990678 -6.53823,54.549278 -6.53823,56.410778 0,1.51385 2.58096,1.82625 3.45145,0.41777 0.31322,-0.5068 1.94354,-12.76056 3.62294,-27.23059 1.6794,-14.47003 3.24049,-26.49617 3.46908,-26.72476 0.22859,-0.2286 2.45064,1.46019 4.93788,3.75285 2.48725,2.29266 5.64646,4.68069 7.020462,5.30673 l 2.49819,1.13825 v 30.71934 30.71934 l -5.250002,3.93338 c -2.8875,2.16336 -5.76165,4.23756 -6.38699,4.60932 -0.68003,0.40428 -3.37422,-2.2965 -6.70364,-6.72004 z m 70.528372,2.81945 -6.18774,-4.59819 v -30.7413 -30.7413 l 2.49819,-1.13825 c 1.374,-0.62604 4.53321,-3.01407 7.02045,-5.30673 2.48725,-2.29266 4.70671,-3.98403 4.93214,-3.75861 0.22543,0.22543 1.79972,12.27295 3.49843,26.77226 1.69871,14.49932 3.33162,26.75567 3.62869,27.23635 0.84774,1.37166 3.4221,1.02165 3.4221,-0.46527 0,-1.8615 -5.85994,-52.4201 -6.53823,-56.410778 l -0.5524,-3.25 h 7.54532 c 4.14992,0 7.57281,0.1125 7.60642,0.25 0.79952,3.2711 10.35606,76.743868 9.98019,76.729958 -0.29771,-0.011 -4.72466,-1.09409 -9.83766,-2.4068 l -9.29635,-2.38676 -5.57481,7.4068 c -3.06614,4.07374 -5.6608,7.4068 -5.7659,7.4068 -0.1051,0 -2.97558,-2.06918 -6.37884,-4.59818 z M 113.36637,106.82133 C 106.36166,104.59998 97.675608,99.207892 90.193848,92.436387 80.830698,83.962095 75.116107,68.506434 76.627519,55.744925 l 0.579029,-4.888993 h 8.86071 c 8.45254,0 8.86071,0.100966 8.86071,2.191833 0,5.795777 11.500362,20.360141 19.303762,24.446796 8.85217,4.635894 22.9219,1.663604 32.18054,-6.798275 5.68593,-5.196621 9.5157,-11.120444 9.5157,-14.718728 0,-4.736621 0.7502,-5.121626 9.97976,-5.121626 h 8.76578 l 0.54373,5.25 c 0.69389,6.699938 -1.68034,18.611798 -5.13114,25.743602 -1.46197,3.021481 -5.3582,8.196481 -8.65828,11.5 -13.32915,13.343016 -31.98111,18.571226 -48.06145,13.471796 z M 47.932514,86.105932 c 0.0025,-3.7125 0.296256,-11.8125 0.652788,-18 l 0.648241,-11.25 h 9.285939 9.285938 l 0.656706,4.75 c 1.138582,8.23545 3.412824,16.022863 6.939134,23.76084 l 3.412918,7.48916 H 63.371073 47.927966 l 0.0045,-6.75 z m 128.522166,-0.73916 c 3.52631,-7.737977 5.80055,-15.52539 6.93913,-23.76084 l 0.65671,-4.75 h 9.28593 9.28594 l 0.64824,11.25 c 0.35654,6.1875 0.65029,14.2875 0.65279,18 l 0.005,6.75 h -15.44311 -15.4431 z m -60.5855,-17.480831 c -3.71178,-1.962484 -9.4207,-7.269167 -11.05922,-10.280009 -0.79286,-1.456915 -0.52777,-1.75 1.58283,-1.75 h 2.53518 v -25.5 -25.4999998 h 17 17 v 25.4999998 25.5 h 2.53518 c 2.1106,0 2.37569,0.293085 1.58283,1.75 -1.69902,3.122015 -7.41982,8.363323 -11.27526,10.330225 -5.02871,2.565456 -15.00195,2.540291 -19.90154,-0.05022 z"
     id="path3940"
     inkscape:connector-curvature="0" />
</svg>
