<svg width="226" height="223" viewBox="0 0 226 223" fill="none" xmlns="http://www.w3.org/2000/svg">
<path fill-rule="evenodd" clip-rule="evenodd" d="M49.1001 19.6C43.9001 23.3 44.0001 22 44.0001 106C44.0001 190 43.9001 188.7 49.1001 192.4C50.8001 193.5 53.7001 194 59.2001 194H67.0001V199.5C67.0001 202.5 67.3001 205 67.7001 205C68.0001 205 70.7001 203.2 73.7001 201L79.0001 196.9L84.3001 201C87.3001 203.2 90.0001 205 90.3001 205C90.7001 205 91.0001 202.5 91.0001 199.5V194H136.5H182V117.5V41H177.5H173V113.5V186H132H91.0001V182V178H79.0001H67.0001V182V186.1L60.3001 185.8L53.5001 185.5L53.2001 178.3L52.9001 171L109.2 170.8L165.5 170.5L165.8 94.2L166 18H108.7C57.4001 18 51.2001 18.2 49.1001 19.6ZM111.5 84V76.5V68H105H98V76.5V84H93.0001H82.5V89V95H93.0001H98V106V123.5H105H111.5V107.5V95H116.8H126.5V89V84H116.8H111.5Z" fill="black"/>
</svg>
