<?xml version="1.0" encoding="UTF-8" standalone="no"?>
<!-- Created with Inkscape (http://www.inkscape.org/) -->

<svg
   xmlns:dc="http://purl.org/dc/elements/1.1/"
   xmlns:cc="http://creativecommons.org/ns#"
   xmlns:rdf="http://www.w3.org/1999/02/22-rdf-syntax-ns#"
   xmlns:svg="http://www.w3.org/2000/svg"
   xmlns="http://www.w3.org/2000/svg"
   xmlns:sodipodi="http://sodipodi.sourceforge.net/DTD/sodipodi-0.dtd"
   xmlns:inkscape="http://www.inkscape.org/namespaces/inkscape"
   version="1.1"
   id="svg3904"
   width="344"
   height="345"
   viewBox="0 0 344 345"
   sodipodi:docname="icon-christmas.svg"
   inkscape:version="0.92.4 (5da689c313, 2019-01-14)">
  <metadata
     id="metadata3910">
    <rdf:RDF>
      <cc:Work
         rdf:about="">
        <dc:format>image/svg+xml</dc:format>
        <dc:type
           rdf:resource="http://purl.org/dc/dcmitype/StillImage" />
        <dc:title></dc:title>
      </cc:Work>
    </rdf:RDF>
  </metadata>
  <defs
     id="defs3908" />
  <sodipodi:namedview
     pagecolor="#ffffff"
     bordercolor="#666666"
     borderopacity="1"
     objecttolerance="10"
     gridtolerance="10"
     guidetolerance="10"
     inkscape:pageopacity="0"
     inkscape:pageshadow="2"
     inkscape:window-width="1920"
     inkscape:window-height="1001"
     id="namedview3906"
     showgrid="false"
     inkscape:zoom="0.68405797"
     inkscape:cx="172"
     inkscape:cy="172.5"
     inkscape:window-x="-9"
     inkscape:window-y="-9"
     inkscape:window-maximized="1"
     inkscape:current-layer="svg3904" />
  <path
     d="m 36.472373,294.18177 c 0.0058,-0.20484 3.559988,-11.31509 7.898242,-24.68945 l 7.887733,-24.317 -9.148242,-6.72449 c -5.031533,-3.69847 -14.447635,-10.53082 -20.92467,-15.183 l -11.776428,-8.4585 25.989336,-0.26653 25.989335,-0.26653 7.724108,-23.98347 c 4.24826,-13.19091 7.97745,-23.97524 8.28709,-23.96519 0.30964,0.0101 3.97004,10.69755 8.13422,23.75 l 7.57123,23.73172 26.049493,0.5 26.04949,0.5 -19.12072,13.81465 c -10.5164,7.59806 -19.94791,14.42669 -20.95892,15.17474 -1.75033,1.29506 -1.49666,2.40341 5.30653,23.18535 3.9296,12.00389 7.54588,23.06276 8.03618,24.57526 0.4903,1.5125 0.78923,2.75 0.66428,2.75 -0.12494,0 -9.43903,-6.74287 -20.697983,-14.98415 -11.25895,-8.24129 -21.00901,-14.78974 -21.6668,-14.55212 -0.93425,0.33749 -34.365931,24.38303 -40.054013,28.8086 -0.6875,0.53491 -1.245271,0.80496 -1.239491,0.60011 z m 65.440137,-92.87244 c 0.4021,-1.375 3.20773,-8.8 6.23474,-16.5 33.14353,-84.30931 91.89647,-130.539474 172.81462,-135.980407 l 9,-0.605159 -10,3.889594 c -13.94215,5.422928 -24.05528,9.890359 -30.5,13.473249 -6.64711,3.6954 -20.18588,12.87017 -19.70358,13.35246 0.19019,0.1902 4.5888,-0.73012 9.77469,-2.04515 12.48242,-3.16528 30.89628,-5.41029 49.92889,-6.0873 l 15.5,-0.55136 -15,5.03567 c -19.28637,6.47465 -31.63427,12.61135 -39.12234,19.44314 -3.23271,2.94938 -5.63761,5.612933 -5.34422,5.918993 0.29339,0.30606 4.79339,-0.5337 10,-1.866143 16.68438,-4.26977 30.34615,-5.76669 47.74916,-5.23189 9.89778,0.30417 18.58696,1.14574 23.4674,2.2729 7.28408,1.68228 10.24443,3.4814 5.72846,3.4814 -1.11184,0 -9.99934,1.594003 -19.75,3.542233 -88.75427,17.73354 -157.14672,48.65927 -201.07936,90.92415 -7.51196,7.22679 -10.22504,9.33426 -9.69846,7.53362 z"
     id="path3924"
     inkscape:connector-curvature="0" />
</svg>
