<?xml version="1.0" encoding="UTF-8" standalone="no"?>
<!-- Created with Inkscape (http://www.inkscape.org/) -->

<svg
   xmlns:dc="http://purl.org/dc/elements/1.1/"
   xmlns:cc="http://creativecommons.org/ns#"
   xmlns:rdf="http://www.w3.org/1999/02/22-rdf-syntax-ns#"
   xmlns:svg="http://www.w3.org/2000/svg"
   xmlns="http://www.w3.org/2000/svg"
   xmlns:sodipodi="http://sodipodi.sourceforge.net/DTD/sodipodi-0.dtd"
   xmlns:inkscape="http://www.inkscape.org/namespaces/inkscape"
   version="1.1"
   id="svg36"
   width="310"
   height="310"
   viewBox="0 0 310 310"
   sodipodi:docname="icon-fire.svg"
   inkscape:version="0.92.4 (5da689c313, 2019-01-14)">
  <metadata
     id="metadata42">
    <rdf:RDF>
      <cc:Work
         rdf:about="">
        <dc:format>image/svg+xml</dc:format>
        <dc:type
           rdf:resource="http://purl.org/dc/dcmitype/StillImage" />
        <dc:title></dc:title>
      </cc:Work>
    </rdf:RDF>
  </metadata>
  <defs
     id="defs40" />
  <sodipodi:namedview
     pagecolor="#ffffff"
     bordercolor="#666666"
     borderopacity="1"
     objecttolerance="10"
     gridtolerance="10"
     guidetolerance="10"
     inkscape:pageopacity="0"
     inkscape:pageshadow="2"
     inkscape:window-width="806"
     inkscape:window-height="480"
     id="namedview38"
     showgrid="false"
     inkscape:zoom="0.76129032"
     inkscape:cx="155"
     inkscape:cy="155"
     inkscape:window-x="0"
     inkscape:window-y="0"
     inkscape:window-maximized="0"
     inkscape:current-layer="svg36" />
  <path
     style="fill:#000000"
     d="M 143,286.67802 C 98.397261,282.69659 62,251.9124 62,218.16959 c 0,-14.15063 5.013742,-24.84821 18.508771,-39.49127 7.76935,-8.43029 8.58996,-9.68891 8.05641,-12.35668 -0.32674,-1.63367 -0.88338,-5.43188 -1.23698,-8.44047 -0.58033,-4.93776 -0.47256,-5.40478 1.10735,-4.79852 2.86405,1.09905 6.56445,1.91202 6.56445,1.44221 0,-0.24075 -2.03325,-4.00203 -4.51834,-8.35841 -5.58778,-9.79544 -6.53644,-12.82459 -7.1782,-22.92069 -0.90384,-14.21895 4.54258,-28.270806 17.125179,-44.183285 7.02604,-8.88543 12.40767,-12.686602 19.43838,-13.729803 l 4.36702,-0.647968 -0.68326,3.642072 c -0.37579,2.00314 -2.90345,7.873493 -5.61702,13.04523 C 113.91017,89.040484 113,91.709034 113,95.837384 c 0,4.261756 0.46221,5.524436 2.92308,7.985296 3.93155,3.93155 7.38704,3.81296 11.59805,-0.39805 5.60942,-5.609416 5.6676,-9.075296 0.48043,-28.619153 -4.65526,-17.539744 -0.59329,-31.599157 12.77218,-44.207458 3.73635,-3.524685 8.8805,-7.631663 11.43145,-9.126617 4.68214,-2.743916 23.54536,-9.308424 24.37214,-8.481643 0.24561,0.245607 -2.70501,4.903684 -6.55692,10.351282 -3.85191,5.447597 -7.00289,10.579722 -7.00217,11.404722 0.004,4.377299 5.65987,12.931361 15.06142,22.778425 C 190.40103,70.429429 199,83.046726 199,88.220673 c 0,2.628403 1.91983,2.606518 5.96124,-0.06795 3.28365,-2.173021 12.82535,-5.322418 16.33407,-5.391334 1.1371,-0.02233 -0.13803,6.55549 -2.51705,12.984385 -4.409,11.914506 -1.7481,27.199356 7.60013,43.656976 11.57113,20.37104 14.63093,26.55728 17.72849,35.84301 3.18232,9.53985 3.33675,10.69023 3.35623,25 0.0196,14.39922 -0.11148,15.38049 -3.27245,24.5 C 230.0428,265.56282 188.85496,290.77123 143,286.67802 Z m 34.98322,-24.13453 c 3.58423,-1.09622 9.21678,-3.41166 12.51678,-5.14543 7.89826,-4.14962 19.2354,-15.44353 23.84443,-23.75351 9.25774,-16.69149 10.576,-38.69492 3.37894,-56.39879 -2.1357,-5.25354 -15.90958,-28.64712 -16.51226,-28.04444 -0.19251,0.1925 0.19279,3.109 0.85621,6.48111 1.60405,8.15323 0.66094,21.9453 -2.02902,29.67233 -2.94835,8.46929 -11.24563,18.36683 -18.28405,21.81041 C 167.11939,214.32534 154,209.80366 154,197.59952 c 0,-6.78304 4.75567,-17.89901 12.52871,-29.28483 10.77067,-15.77668 15.41838,-27.22348 16.98207,-41.82496 1.25711,-11.73878 -2.24757,-25.9481 -8.6006,-34.870106 l -2.15447,-3.025681 -2.27491,5.597281 c -3.45734,8.506586 -12.02087,18.246236 -30.22139,34.371986 -13.29449,11.77899 -20.28529,25.77846 -20.23496,40.52164 0.0318,9.30877 0.9879,13.18838 7.15123,29.01711 4.16516,10.69702 5.13709,14.35381 5.2211,19.6438 0.12371,7.79039 -1.68301,12.57954 -5.48797,14.54716 -3.87766,2.00521 -6.44903,1.80074 -13.40881,-1.06626 -9.23697,-3.80507 -12.38239,-3.41703 -17.524979,2.16202 l -4.27969,4.64292 5.40233,1.69248 c 6.401259,2.00542 14.739799,6.13702 28.402339,14.07286 5.5,3.19465 12.35353,6.72994 15.23007,7.85619 11.12805,4.35697 24.84661,4.68485 37.25315,0.89036 z"
     id="path46"
     inkscape:connector-curvature="0" />
</svg>
