<?xml version="1.0" encoding="UTF-8" standalone="no"?>
<!-- Created with Inkscape (http://www.inkscape.org/) -->

<svg
   xmlns:dc="http://purl.org/dc/elements/1.1/"
   xmlns:cc="http://creativecommons.org/ns#"
   xmlns:rdf="http://www.w3.org/1999/02/22-rdf-syntax-ns#"
   xmlns:svg="http://www.w3.org/2000/svg"
   xmlns="http://www.w3.org/2000/svg"
   xmlns:sodipodi="http://sodipodi.sourceforge.net/DTD/sodipodi-0.dtd"
   xmlns:inkscape="http://www.inkscape.org/namespaces/inkscape"
   version="1.1"
   id="svg72"
   width="310"
   height="310"
   viewBox="0 0 310 310"
   sodipodi:docname="icon-pilgrim.svg"
   inkscape:version="0.92.4 (5da689c313, 2019-01-14)">
  <metadata
     id="metadata78">
    <rdf:RDF>
      <cc:Work
         rdf:about="">
        <dc:format>image/svg+xml</dc:format>
        <dc:type
           rdf:resource="http://purl.org/dc/dcmitype/StillImage" />
        <dc:title></dc:title>
      </cc:Work>
    </rdf:RDF>
  </metadata>
  <defs
     id="defs76" />
  <sodipodi:namedview
     pagecolor="#ffffff"
     bordercolor="#666666"
     borderopacity="1"
     objecttolerance="10"
     gridtolerance="10"
     guidetolerance="10"
     inkscape:pageopacity="0"
     inkscape:pageshadow="2"
     inkscape:window-width="806"
     inkscape:window-height="480"
     id="namedview74"
     showgrid="false"
     inkscape:zoom="0.76129032"
     inkscape:cx="155"
     inkscape:cy="155"
     inkscape:window-x="29"
     inkscape:window-y="131"
     inkscape:window-maximized="0"
     inkscape:current-layer="svg72" />
  <path
     style="fill:#000000"
     d="m 91.500001,296.65029 c -5.04371,-1.2372 -27.972258,-9.42446 -29.164589,-10.41401 -2.028155,-1.68322 -1.619373,-9.92239 1.153511,-23.24948 4.434237,-21.31192 11.973912,-42.50579 21.090888,-59.28605 l 4.44004,-8.17214 7.240083,0.5381 c 8.613516,0.64017 13.700506,-0.57 20.036046,-4.76649 9.34556,-6.19024 18.85623,-21.57419 25.78113,-41.70215 l 3.19093,-9.2748 3.11598,2.39472 c 1.71379,1.3171 5.45585,5.45697 8.3157,9.19972 15.7228,20.57678 29.18863,63.46349 35.7246,113.77768 2.06073,15.86356 5.81544,20.67668 20.40713,26.1597 4.06152,1.52617 6.94992,3.13642 6.47604,3.6103 -0.47048,0.47048 -7.69037,0.92988 -16.04419,1.02088 -12.87882,0.1403 -15.5888,-0.0966 -17.81909,-1.55799 -2.53704,-1.66233 -2.60651,-1.96052 -1.95894,-8.40873 0.64373,-6.40993 0.51651,-6.97281 -3.08876,-13.66598 -2.06808,-3.83938 -4.45841,-8.46819 -5.31186,-10.28625 -1.21254,-2.58304 -1.99246,-3.17587 -3.56818,-2.71223 -9.82758,2.89172 -25.63673,6.69757 -33.01647,7.9483 -13.75397,2.33103 -35.81749,3.74041 -47.499999,3.03421 -8.43684,-0.51 -10.88521,-0.34481 -12.460429,0.84073 -2.709792,2.03944 -1.100428,5.32294 5.065659,10.33522 8.628993,7.01431 13.394773,11.59683 13.394773,12.8797 0,1.00532 -2.6132,2.85917 -3.33179,2.36363 -0.0925,-0.0638 -1.06821,-0.33677 -2.168213,-0.60659 z M 234.55822,286.20411 c -0.28637,-1.28217 -6.60805,-42.15623 -14.04818,-90.83123 -7.44013,-48.675 -13.78434,-89.7375 -14.09823,-91.25 -0.48542,-2.33899 -1.07128,-2.75 -3.91984,-2.75 -1.84201,0 -4.02549,-0.67638 -4.85218,-1.503069 -1.82614,-1.826139 -1.74777,-2.032439 -4.56,12.003069 -1.72616,8.61505 -4.07635,28.11271 -4.07895,33.83977 -7.8e-4,1.70041 -0.66361,1.78582 -8.75084,1.12754 -11.29148,-0.9191 -21.42657,-3.5184 -29.39353,-7.53841 -7.21293,-3.63955 -19.3448,-15.10929 -22.66595,-21.4289 -2.92143,-5.559 -2.69517,-3.53493 0.88531,7.91957 1.75109,5.60204 2.82679,10.83228 2.49761,12.14385 -1.26795,5.0519 -12.44823,9.44001 -24.03354,9.43284 -7.896446,-0.005 -11.975936,-2.38187 -13.644196,-7.95005 -2.178143,-7.26998 2.1192,-20.46284 11.310226,-34.72247 6.27437,-9.734503 6.27783,-9.740749 4.93446,-8.910501 -2.31474,1.430588 -17.174966,24.970481 -22.044009,34.919641 -9.05222,18.49683 -11.474966,33.58835 -6.84638,42.64669 3.20526,6.27284 6.23623,8.16329 13.088263,8.16329 10.765816,0 24.541366,-8.87398 35.582526,-22.92168 3.59931,-4.57941 6.71952,-7.80026 6.93379,-7.15744 0.21427,0.64282 -1.94756,5.87047 -4.80407,11.617 -6.03524,12.14128 -14.1778,21.28844 -23.05051,25.89442 -4.6187,2.39765 -6.72741,2.86073 -13.159986,2.89 -6.945553,0.0316 -8.063613,-0.24858 -11.987463,-3.0039 -15.570559,-10.93362 -14.258034,-39.97369 3.35703,-74.27557 8.471043,-16.495678 24.530099,-39.632697 39.223609,-56.51124 3.43511,-3.945946 6.8088,-8.233744 7.49708,-9.528439 0.7201,-1.354571 1.35469,-6.873902 1.49467,-13 0.35172,-15.393048 3.8383,-22.171607 13.25348,-25.7672993 11.81854,-4.5135421 29.173,3.9917733 32.3849,15.8716373 0.7721,2.855793 0.64695,4.986184 -0.52468,8.931501 C 179.69239,37.404365 179,41.417405 179,43.472596 c 0,5.421765 -0.8441,6.900286 -3.93945,6.900286 -2.048,0 -3.33335,0.932134 -5.171,3.75 -2.58896,3.969921 -2.62445,3.978056 -11.61423,2.662836 -3.87774,-0.56732 -4.32445,-0.399109 -5.43957,2.048313 -0.94975,2.084476 -0.95216,3.579997 -0.011,6.852621 2.71731,9.448894 5.07251,21.568087 5.35662,27.563718 l 0.3022,6.377491 -5.49178,4.909219 c -3.02048,2.70008 -7.68851,6.35521 -10.3734,8.12251 -3.33551,2.19557 -4.35603,3.31739 -3.22214,3.54198 2.45444,0.48614 9.71537,-4.11174 16.68895,-10.56805 l 6.14769,-5.691669 -5.73981,11.465519 c -4.26841,8.52631 -5.15633,10.95281 -3.46371,9.46551 2.15228,-1.8912 9.62861,-12.86195 13.03342,-19.12522 1.25126,-2.301749 3.04523,-3.336438 9,-5.190861 4.09047,-1.273846 12.04972,-4.600053 17.68722,-7.391571 8.33846,-4.128951 10.25,-5.484233 10.25,-7.26725 0,-3.157864 -0.49249,-3.344309 -6.12822,-2.319983 -2.79246,0.507545 -5.23537,0.764633 -5.42869,0.571306 -0.19333,-0.193327 -0.64842,-2.208319 -1.01132,-4.477759 l -0.65982,-4.126255 5.42487,-0.677792 5.42487,-0.677793 -0.43759,-11.432263 c -0.52081,-13.606206 0.77471,-18.108071 7.0035,-24.336864 14.11067,-14.110668 38.75943,-4.830205 41.31977,15.557233 0.49768,3.962924 0.17466,5.740844 -1.69631,9.336531 -3.12331,6.002465 -6.55107,8.289509 -13.25764,8.84567 -6.37019,0.528266 -9.47718,-0.974112 -12.59742,-6.091461 -3.50585,-5.749743 -1.66904,-14.695666 3.01736,-14.695666 2.27908,0 2.90555,1.539357 2.28424,5.612847 -0.77959,5.111278 1.10669,7.387153 6.12259,7.387153 6.20752,0 8.00779,-2.307765 7.41131,-9.500549 -0.59263,-7.146321 -4.66218,-11.789151 -11.84354,-13.511933 -4.17549,-1.001686 -5.36198,-0.89797 -9.21251,0.805302 -7.9018,3.495341 -11.46217,11.907756 -10.16523,24.018341 l 0.68068,6.356092 5.87454,-0.681813 5.87455,-0.681814 0.15,3.098187 c 0.0825,1.704003 0.195,3.654524 0.25,4.334492 0.055,0.679968 -0.575,1.325002 -1.4,1.43341 -8.24727,1.083718 -9.12398,1.445586 -8.81209,3.637246 0.23835,1.674882 1.09888,2.268487 3.64208,2.512364 2.70959,0.259831 3.59456,0.952507 4.75,3.717881 2.82518,6.761595 1.01008,14.462792 -3.40873,14.462792 -0.64419,0 -1.16396,0.7875 -1.15504,1.75 0.009,0.9625 6.49196,42.925 14.40675,93.25 7.91479,50.325 14.31999,91.56109 14.23378,91.63576 -0.0862,0.0747 -2.0515,0.44872 -4.36731,0.83123 -3.85808,0.63726 -4.25414,0.50033 -4.73122,-1.63576 z M 127.52798,76.288641 c 2.17674,-6.55354 7.33357,-12.929617 12.85544,-15.894873 C 142.92254,59.030255 145,57.615589 145,57.250065 c 0,-0.365523 -1.9125,-0.256402 -4.25,0.242493 -9.94929,2.123486 -17.89498,18.759528 -17.61475,36.880324 l 0.10051,6.499998 1.3524,-9.902468 c 0.74381,-5.446358 2.06673,-12.053155 2.93982,-14.681771 z M 90.425341,177.49047 c -6.60182,-4.0258 -9.73926,-19.08988 -6.48094,-31.11759 1.19136,-4.3978 5.88063,-13.5083 6.5885,-12.80043 0.19612,0.19612 -0.0578,2.14395 -0.5643,4.3285 -1.22716,5.29296 -1.18763,15.59932 0.067,17.47193 0.85242,1.27228 1.29772,1.12046 2.933133,-1 4.77057,-6.18548 4.50537,-6.06372 9.744466,-4.47406 8.94915,2.71537 10.8993,2.26003 26.57501,-6.20491 2.79041,-1.50684 5.71176,-1.21847 5.71176,0.56381 0,0.52118 -2.35527,4.47281 -5.23394,8.78138 -6.39485,9.57134 -17.79008,21.31781 -23.47622,24.19985 -5.22219,2.64688 -11.766266,2.75063 -15.864499,0.25152 z"
     id="path82"
     inkscape:connector-curvature="0" />
</svg>
